<?xml version="1.0" encoding="UTF-8"?>
<svg xmlns="http://www.w3.org/2000/svg" xmlns:xlink="http://www.w3.org/1999/xlink" width="12pt" height="12pt" viewBox="0 0 12 12" version="1.1">
<g id="surface1">
<path style=" stroke:none;fill-rule:nonzero;fill:rgb(0%,0%,0%);fill-opacity:1;" d="M 5.875 3.015625 C 5.648438 3.085938 5.273438 3.421875 4.96875 3.824219 C 4.542969 4.394531 4.277344 5.035156 4.203125 5.664062 C 4.175781 5.910156 4.1875 6.253906 4.226562 6.515625 C 4.34375 7.265625 4.738281 8.050781 5.269531 8.582031 C 5.515625 8.828125 5.738281 8.972656 5.90625 8.996094 C 6.007812 9.007812 6.160156 8.949219 6.339844 8.820312 C 6.457031 8.738281 6.734375 8.46875 6.855469 8.316406 C 7.296875 7.757812 7.589844 7.074219 7.675781 6.398438 C 7.789062 5.496094 7.488281 4.535156 6.824219 3.714844 C 6.546875 3.363281 6.203125 3.070312 6.011719 3.015625 C 5.945312 2.996094 5.929688 2.996094 5.875 3.015625 Z M 5.875 3.015625 "/>
<path style=" stroke:none;fill-rule:nonzero;fill:rgb(0%,0%,0%);fill-opacity:1;" d="M 8.992188 4.402344 C 8.761719 4.414062 8.527344 4.449219 8.300781 4.507812 C 8.164062 4.539062 8.019531 4.578125 8.011719 4.585938 C 8.011719 4.585938 8.027344 4.640625 8.050781 4.699219 C 8.226562 5.175781 8.308594 5.714844 8.28125 6.191406 C 8.246094 6.796875 8.097656 7.335938 7.816406 7.894531 C 7.628906 8.261719 7.441406 8.542969 7.175781 8.84375 C 7.097656 8.929688 7.097656 8.933594 7.132812 8.925781 C 7.460938 8.859375 7.847656 8.722656 8.148438 8.570312 C 8.648438 8.316406 9.078125 7.945312 9.378906 7.519531 C 9.820312 6.882812 10.070312 6.019531 10.046875 5.203125 C 10.035156 4.835938 9.984375 4.605469 9.886719 4.523438 C 9.816406 4.460938 9.640625 4.417969 9.398438 4.402344 C 9.238281 4.390625 9.175781 4.390625 8.992188 4.402344 Z M 8.992188 4.402344 "/>
<path style=" stroke:none;fill-rule:nonzero;fill:rgb(0%,0%,0%);fill-opacity:1;" d="M 2.480469 4.410156 C 2.292969 4.4375 2.160156 4.476562 2.105469 4.527344 C 2.050781 4.582031 2.007812 4.703125 1.972656 4.910156 C 1.945312 5.074219 1.949219 5.539062 1.980469 5.765625 C 2.023438 6.113281 2.109375 6.453125 2.214844 6.738281 C 2.285156 6.921875 2.4375 7.230469 2.527344 7.378906 C 2.925781 8.011719 3.527344 8.484375 4.304688 8.765625 C 4.4375 8.8125 4.738281 8.902344 4.746094 8.894531 C 4.75 8.894531 4.726562 8.863281 4.695312 8.828125 C 4.273438 8.359375 3.929688 7.722656 3.75 7.085938 C 3.699219 6.914062 3.648438 6.648438 3.621094 6.464844 C 3.597656 6.265625 3.597656 5.730469 3.621094 5.550781 C 3.664062 5.265625 3.722656 5.019531 3.8125 4.761719 C 3.84375 4.664062 3.875 4.578125 3.878906 4.566406 C 3.882812 4.546875 3.832031 4.53125 3.605469 4.484375 C 3.308594 4.421875 3.167969 4.40625 2.839844 4.402344 C 2.679688 4.402344 2.515625 4.40625 2.480469 4.410156 Z M 2.480469 4.410156 "/>
</g>
</svg>
