<?xml version="1.0" standalone="no"?>
<!DOCTYPE svg PUBLIC "-//W3C//DTD SVG 20010904//EN"
 "http://www.w3.org/TR/2001/REC-SVG-20010904/DTD/svg10.dtd">
<svg version="1.0" xmlns="http://www.w3.org/2000/svg"
 width="1200.000000pt" height="1200.000000pt" viewBox="0 0 1200.000000 1200.000000"
 preserveAspectRatio="xMidYMid meet">
<metadata>
Created by potrace 1.16, written by Peter Selinger 2001-2019
</metadata>
<g transform="translate(0.000000,1200.000000) scale(0.100000,-0.100000)"
fill="#000000" stroke="none">
<path d="M5875 8986 c-226 -71 -603 -408 -905 -811 -426 -568 -693 -1210 -765
-1838 -28 -246 -19 -589 21 -852 117 -751 513 -1537 1043 -2066 248 -247 471
-392 637 -414 103 -14 256 47 434 173 118 83 393 355 514 507 441 556 735
1240 821 1915 115 904 -188 1863 -850 2687 -279 349 -621 641 -814 697 -64 19
-82 19 -136 2z"/>
<path d="M8991 7599 c-228 -14 -462 -50 -691 -105 -137 -33 -281 -72 -288 -79
-2 -2 15 -54 38 -115 175 -477 258 -1013 230 -1491 -35 -604 -182 -1145 -464
-1703 -187 -369 -375 -649 -640 -949 -78 -88 -78 -89 -45 -82 331 67 716 202
1019 356 499 254 930 623 1227 1049 442 636 692 1501 670 2315 -10 369 -64
598 -161 682 -69 61 -244 105 -486 122 -160 12 -226 12 -409 0z"/>
<path d="M2480 7590 c-188 -26 -320 -68 -373 -118 -57 -53 -100 -175 -134
-382 -27 -166 -24 -629 6 -855 45 -347 129 -688 237 -975 70 -183 220 -490
313 -639 396 -634 999 -1104 1777 -1386 133 -49 434 -138 441 -131 2 2 -21 32
-53 67 -419 470 -765 1107 -945 1743 -49 173 -102 437 -126 621 -25 198 -25
734 0 915 41 286 99 531 188 790 33 96 63 182 66 192 6 20 -46 36 -272 84
-296 61 -437 76 -765 80 -162 1 -324 -1 -360 -6z"/>
</g>
</svg>
