<?xml version="1.0" standalone="no"?>
<!DOCTYPE svg PUBLIC "-//W3C//DTD SVG 1.0//EN" "http://www.w3.org/TR/2001/REC-SVG-20010904/DTD/svg10.dtd">
<svg xmlns="http://www.w3.org/2000/svg" xmlns:xlink="http://www.w3.org/1999/xlink" id="body_1" width="768" height="768">

<g transform="matrix(0.48 0 0 0.48 0 0)">
	<g transform="matrix(0.1333333 0 0 -0.1333333 0 1600)">
	</g>
    <path transform="matrix(0.1333333 0 0 -0.1333333 0 1600)"  d="M5875 8986C 5649 8915 5272 8578 4970 8175C 4544 7607 4277 6965 4205 6337C 4177 6091 4186 5748 4226 5485C 4343 4734 4739 3948 5269 3419C 5517 3172 5740 3027 5906 3005C 6009 2991 6162 3052 6340 3178C 6458 3261 6733 3533 6854 3685C 7295 4241 7589 4925 7675 5600C 7790 6504 7487 7463 6825 8287C 6546 8636 6204 8928 6011 8984C 5947 9003 5929 9003 5875 8986z" stroke="none" fill="#000000" fill-rule="nonzero" />
	<g transform="matrix(0.1333333 0 0 -0.1333333 0 1600)">
	</g>
    <path transform="matrix(0.1333333 0 0 -0.1333333 0 1600)"  d="M8991 7599C 8763 7585 8529 7549 8300 7494C 8163 7461 8019 7422 8012 7415C 8010 7413 8027 7361 8050 7300C 8225 6823 8308 6287 8280 5809C 8245 5205 8098 4664 7816 4106C 7629 3737 7441 3457 7176 3157C 7098 3069 7098 3068 7131 3075C 7462 3142 7847 3277 8150 3431C 8649 3685 9080 4054 9377 4480C 9819 5116 10069 5981 10047 6795C 10037 7164 9983 7393 9886 7477C 9817 7538 9642 7582 9400 7599C 9240 7611 9174 7611 8991 7599z" stroke="none" fill="#000000" fill-rule="nonzero" />
	<g transform="matrix(0.1333333 0 0 -0.1333333 0 1600)">
	</g>
    <path transform="matrix(0.1333333 0 0 -0.1333333 0 1600)"  d="M2480 7590C 2292 7564 2160 7522 2107 7472C 2050 7419 2007 7297 1973 7090C 1946 6924 1949 6461 1979 6235C 2024 5888 2108 5547 2216 5260C 2286 5077 2436 4770 2529 4621C 2925 3987 3528 3517 4306 3235C 4439 3186 4740 3097 4747 3104C 4749 3106 4726 3136 4694 3171C 4275 3641 3929 4278 3749 4914C 3700 5087 3647 5351 3623 5535C 3598 5733 3598 6269 3623 6450C 3664 6736 3722 6981 3811 7240C 3844 7336 3874 7422 3877 7432C 3883 7452 3831 7468 3605 7516C 3309 7577 3168 7592 2840 7596C 2678 7597 2516 7595 2480 7590z" stroke="none" fill="#000000" fill-rule="nonzero" />
</g>
</svg>